# xmcd
#
# Track frame offsets:
#	150
#	12880
#	26617
#	37760
#	50497
#	62464
#	75697
#	90202
#	104610
#	114962
#	126840
#	137980
#
# Disc length: 1993 seconds
#
# Revision: 0
# Processed by: cddbd v1.5.1PL0 Copyright (c) Steve Scherf et al.
# Submitted via: EasyCDDAExtractor 4.6.9.1
#
DISCID=8d07c70c
DTITLE=Reno And Smiley - Tribute To Mother
DYEAR=1996
DGENRE=Bluegrass
TTITLE0=Always Be Kind To Your Mother
TTITLE1=A Pretty Wreath For Mother's Grave
TTITLE2=I'm Building A Mansion In The Sky
TTITLE3=Garden In The Sky
TTITLE4=My Mother's Bible
TTITLE5=Amazing Grace
TTITLE6=Mother's On;y Sleeping
TTITLE7=Family Bible
TTITLE8=A Brighter Mansion Over There
TTITLE9=Where We'll Never Grow Old
TTITLE10=A Rose On God's Shore
TTITLE11=How I Miss My Darling Mother
EXTD=
EXTT0=
EXTT1=
EXTT2=
EXTT3=
EXTT4=
EXTT5=
EXTT6=
EXTT7=
EXTT8=
EXTT9=
EXTT10=
EXTT11=
PLAYORDER=
